<svg xmlns="http://www.w3.org/2000/svg" width="5.5" height="10.187" viewBox="0 0 5.5 10.187">
  <metadata><?xpacket begin="﻿" id="W5M0MpCehiHzreSzNTczkc9d"?>
<x:xmpmeta xmlns:x="adobe:ns:meta/" x:xmptk="Adobe XMP Core 5.6-c142 79.160924, 2017/07/13-01:06:39        ">
   <rdf:RDF xmlns:rdf="http://www.w3.org/1999/02/22-rdf-syntax-ns#">
      <rdf:Description rdf:about=""/>
   </rdf:RDF>
</x:xmpmeta>
<?xpacket end="w"?></metadata>
<defs>
    <style>
      .cls-1 {
        fill: #004aad;
        fill-rule: evenodd;
      }
    </style>
  </defs>
  <path class="cls-1" d="M615.754,780.119a1.007,1.007,0,0,1,.508.339q1.994,2.109,3.991,4.211a0.731,0.731,0,0,1,.2.778,0.842,0.842,0,0,1-.182.3q-2.051,2.172-4.109,4.338a0.632,0.632,0,0,1-.735.184,0.675,0.675,0,0,1-.437-0.607,0.74,0.74,0,0,1,.226-0.6q0.474-.5.948-1l2.616-2.759c0.025-.026.053-0.048,0.114-0.1a0.581,0.581,0,0,1-.112-0.069q-1.781-1.875-3.559-3.752a0.737,0.737,0,0,1-.2-0.76,0.66,0.66,0,0,1,.442-0.464l0.106-.036h0.189Z" transform="translate(-615 -780.125)"/>
</svg>