<svg xmlns="http://www.w3.org/2000/svg" width="19.5" height="19.969" viewBox="0 0 19.5 19.969">
  <metadata><?xpacket begin="﻿" id="W5M0MpCehiHzreSzNTczkc9d"?>
<x:xmpmeta xmlns:x="adobe:ns:meta/" x:xmptk="Adobe XMP Core 5.6-c142 79.160924, 2017/07/13-01:06:39        ">
   <rdf:RDF xmlns:rdf="http://www.w3.org/1999/02/22-rdf-syntax-ns#">
      <rdf:Description rdf:about=""/>
   </rdf:RDF>
</x:xmpmeta>
                                                                                                    
                                                                                                    
                                                                                                    
                                                                                                    
                                                                                                    
                                                                                                    
                                                                                                    
                                                                                                    
                                                                                                    
                                                                                                    
                                                                                                    
                                                                                                    
                                                                                                    
                                                                                                    
                                                                                                    
                                                                                                    
                                                                                                    
                                                                                                    
                                                                                                    
                                                                                                    
                           
<?xpacket end="w"?></metadata>
<defs>
    <style>
      .cls-1 {
        fill: #626a76;
        fill-rule: evenodd;
      }
    </style>
  </defs>
  <path class="cls-1" d="M1159.93,378.414a0.8,0.8,0,0,1,.54.863c-0.01,1.206,0,2.413,0,3.62a0.711,0.711,0,0,1-.83.826c-0.35,0-.7,0-1.05,0a0.657,0.657,0,0,1-.71-0.689q-0.015-1.965,0-3.931a0.7,0.7,0,0,1,.53-0.687h1.52Zm-10.83,0a0.792,0.792,0,0,1,.55.858c-0.01,1.213,0,2.426,0,3.64a0.7,0.7,0,0,1-.81.81q-0.495,0-.99,0a0.693,0.693,0,0,1-.79-0.8c-0.01-.948,0-1.895,0-2.842,0-.266.01-0.533-0.01-0.8a0.781,0.781,0,0,1,.54-0.867h1.51Zm12.69,2.23a1.781,1.781,0,0,1,1.73,1.73V396.44a1.817,1.817,0,0,1-1.9,1.93h-15.71a1.8,1.8,0,0,1-1.52-.725,1.924,1.924,0,0,1-.36-1.186c0.01-1.579,0-3.157,0-4.735,0-3.052.01-6.1,0-9.157a1.858,1.858,0,0,1,.7-1.552,1.8,1.8,0,0,1,1.03-.369v2.294a1.984,1.984,0,0,0,2.06,2.081c0.37,0,.73,0,1.09,0a1.991,1.991,0,0,0,2.06-2.085v-2.29h5.61v2.312a2,2,0,0,0,2.01,2.061c0.4,0.011.8,0.01,1.2,0a1.974,1.974,0,0,0,2-2.043c0.01-.7,0-1.4,0-2.1v-0.227Zm-8.01,6.966h-6.54a0.806,0.806,0,0,0-.93.925v6.995a0.805,0.805,0,0,0,.92.931h13.06a0.8,0.8,0,0,0,.92-0.916v-7.014a0.8,0.8,0,0,0-.91-0.92h-6.52Zm0,1.363c0.25,0,.5,0,0.74,0a0.459,0.459,0,0,1,.5.481q0.015,0.759,0,1.519a0.443,0.443,0,0,1-.46.477q-0.78.025-1.56,0a0.448,0.448,0,0,1-.46-0.509q-0.015-.731,0-1.46a0.459,0.459,0,0,1,.5-0.51C1153.29,388.969,1153.54,388.973,1153.78,388.973Zm-0.02,6.434c-0.24,0-.48,0-0.72,0a0.462,0.462,0,0,1-.5-0.511q-0.015-.73,0-1.46a0.464,0.464,0,0,1,.5-0.514c0.49-.009.98-0.008,1.46,0a0.471,0.471,0,0,1,.52.522q0.015,0.72,0,1.441a0.472,0.472,0,0,1-.54.523C1154.24,395.409,1154,395.407,1153.76,395.407Zm-3.92-6.434c0.24,0,.48,0,0.72,0a0.456,0.456,0,0,1,.51.485q0.015,0.759,0,1.518a0.442,0.442,0,0,1-.48.477c-0.5.013-1.01,0.014-1.52,0a0.456,0.456,0,0,1-.48-0.514V389.48a0.463,0.463,0,0,1,.51-0.506C1149.35,388.97,1149.59,388.973,1149.84,388.973Zm9.12,1.253c0,0.24.01,0.48,0,.72a0.44,0.44,0,0,1-.46.507c-0.52.015-1.03,0.014-1.54,0a0.432,0.432,0,0,1-.47-0.482q-0.03-.759,0-1.518a0.447,0.447,0,0,1,.51-0.479q0.72-.006,1.44,0a0.463,0.463,0,0,1,.52.532C1158.97,389.746,1158.96,389.986,1158.96,390.226Zm-9.15,5.181c-0.24,0-.48,0-0.72,0a0.461,0.461,0,0,1-.5-0.5v-1.479a0.463,0.463,0,0,1,.49-0.506q0.75-.017,1.5,0a0.45,0.45,0,0,1,.49.469q0.015,0.768,0,1.538a0.456,0.456,0,0,1-.5.477h-0.76Zm9.15-1.245c0,0.253.01,0.506,0,.759a0.446,0.446,0,0,1-.47.483c-0.51.009-1.02,0.009-1.54,0a0.429,0.429,0,0,1-.46-0.449q-0.015-.789,0-1.577a0.437,0.437,0,0,1,.48-0.455c0.5-.011,1.01-0.012,1.52,0a0.449,0.449,0,0,1,.47.5C1158.97,393.669,1158.96,393.915,1158.96,394.162Z" transform="translate(-1144.03 -378.406)"/>
</svg>
