<svg xmlns="http://www.w3.org/2000/svg" width="8.91" height="5.063" viewBox="0 0 8.91 5.063">
  <metadata><?xpacket begin="﻿" id="W5M0MpCehiHzreSzNTczkc9d"?>
<x:xmpmeta xmlns:x="adobe:ns:meta/" x:xmptk="Adobe XMP Core 5.6-c142 79.160924, 2017/07/13-01:06:39        ">
   <rdf:RDF xmlns:rdf="http://www.w3.org/1999/02/22-rdf-syntax-ns#">
      <rdf:Description rdf:about=""/>
   </rdf:RDF>
</x:xmpmeta>
                                                                                                    
                                                                                                    
                                                                                                    
                                                                                                    
                                                                                                    
                                                                                                    
                                                                                                    
                                                                                                    
                                                                                                    
                                                                                                    
                                                                                                    
                                                                                                    
                                                                                                    
                                                                                                    
                                                                                                    
                                                                                                    
                                                                                                    
                                                                                                    
                                                                                                    
                                                                                                    
                           
<?xpacket end="w"?></metadata>
<defs>
    <style>
      .cls-1 {
        fill: #858f9a;
        fill-rule: evenodd;
      }
    </style>
  </defs>
  <path class="cls-1" d="M1316.03,307.726a0.98,0.98,0,0,1-.3.469c-1.23,1.225-2.45,2.452-3.68,3.679a0.613,0.613,0,0,1-.68.181,0.752,0.752,0,0,1-.26-0.167c-1.26-1.261-2.53-2.525-3.79-3.789a0.617,0.617,0,0,1-.16-0.678,0.6,0.6,0,0,1,.53-0.4,0.617,0.617,0,0,1,.52.208c0.29,0.292.59,0.583,0.88,0.875,0.8,0.8,1.6,1.608,2.41,2.412,0.02,0.023.04,0.049,0.09,0.105a0.26,0.26,0,0,1,.06-0.1l3.27-3.281a0.634,0.634,0,0,1,.67-0.186,0.584,0.584,0,0,1,.4.407,0.4,0.4,0,0,0,.04.1v0.174Z" transform="translate(-1307.12 -307.031)"/>
</svg>
