<svg xmlns="http://www.w3.org/2000/svg" width="20.16" height="20.406" viewBox="0 0 20.16 20.406">
  <metadata><?xpacket begin="﻿" id="W5M0MpCehiHzreSzNTczkc9d"?>
<x:xmpmeta xmlns:x="adobe:ns:meta/" x:xmptk="Adobe XMP Core 5.6-c142 79.160924, 2017/07/13-01:06:39        ">
   <rdf:RDF xmlns:rdf="http://www.w3.org/1999/02/22-rdf-syntax-ns#">
      <rdf:Description rdf:about=""/>
   </rdf:RDF>
</x:xmpmeta>
                                                                                                    
                                                                                                    
                                                                                                    
                                                                                                    
                                                                                                    
                                                                                                    
                                                                                                    
                                                                                                    
                                                                                                    
                                                                                                    
                                                                                                    
                                                                                                    
                                                                                                    
                                                                                                    
                                                                                                    
                                                                                                    
                                                                                                    
                                                                                                    
                                                                                                    
                                                                                                    
                           
<?xpacket end="w"?></metadata>
<defs>
    <style>
      .cls-1 {
        fill: #32363c;
        fill-rule: evenodd;
      }
    </style>
  </defs>
  <path class="cls-1" d="M1185.21,47.483h-1.51a0.8,0.8,0,0,1-.93-0.923V39.613a0.791,0.791,0,0,1,.9-0.906h1.61a5,5,0,0,0-1.39-2.654,6.584,6.584,0,0,0-4-1.928,7.156,7.156,0,0,0-5.04,1.129,5.237,5.237,0,0,0-2.33,3.343,0.343,0.343,0,0,0-.01.109c0.55,0,1.09,0,1.63,0a0.784,0.784,0,0,1,.87.865v7.044a0.775,0.775,0,0,1-.86.867c-0.82,0-1.64.005-2.45,0a2.831,2.831,0,0,1-2.89-2.9V41.626a2.843,2.843,0,0,1,1.95-2.778,0.3,0.3,0,0,0,.17-0.185,6.629,6.629,0,0,1,2.57-4.342,8.855,8.855,0,0,1,11.45.6,6.432,6.432,0,0,1,1.9,3.728,0.294,0.294,0,0,0,.16.193,2.851,2.851,0,0,1,1.96,2.819v2.929a2.827,2.827,0,0,1-1.95,2.743,0.271,0.271,0,0,0-.2.232,4.861,4.861,0,0,1-4.13,3.992,12,12,0,0,1-1.67.058,0.309,0.309,0,0,0-.31.19,2.053,2.053,0,0,1-2.52.978,2.063,2.063,0,0,1,.83-4,1.978,1.978,0,0,1,1.7,1.112,0.286,0.286,0,0,0,.3.179,6.4,6.4,0,0,0,2.04-.183,3.326,3.326,0,0,0,2.13-2.178,0.933,0.933,0,0,0,.04-0.164A0.13,0.13,0,0,0,1185.21,47.483Z" transform="translate(-1168.81 -32.5)"/>
</svg>
