<svg xmlns="http://www.w3.org/2000/svg" width="17" height="20" viewBox="0 0 17 20">
  <metadata><?xpacket begin="﻿" id="W5M0MpCehiHzreSzNTczkc9d"?>
<x:xmpmeta xmlns:x="adobe:ns:meta/" x:xmptk="Adobe XMP Core 5.6-c142 79.160924, 2017/07/13-01:06:39        ">
   <rdf:RDF xmlns:rdf="http://www.w3.org/1999/02/22-rdf-syntax-ns#">
      <rdf:Description rdf:about=""/>
   </rdf:RDF>
</x:xmpmeta>
                                                                                                    
                                                                                                    
                                                                                                    
                                                                                                    
                                                                                                    
                                                                                                    
                                                                                                    
                                                                                                    
                                                                                                    
                                                                                                    
                                                                                                    
                                                                                                    
                                                                                                    
                                                                                                    
                                                                                                    
                                                                                                    
                                                                                                    
                                                                                                    
                                                                                                    
                                                                                                    
                           
<?xpacket end="w"?></metadata>
<defs>
    <style>
      .cls-1 {
        fill: #a1a8b3;
        fill-rule: evenodd;
      }
    </style>
  </defs>
  <path class="cls-1" d="M957.5,234.993h-6.413a2.158,2.158,0,0,1-2.085-2.451V217.453A2.158,2.158,0,0,1,951.09,215q6.413,0,12.825,0A2.156,2.156,0,0,1,966,217.451v15.088a2.158,2.158,0,0,1-2.083,2.453H957.5Zm1.961-13.842c1.062,0,2.124,0,3.185-.006a0.837,0.837,0,0,0,.443-0.135,0.785,0.785,0,0,0,.266-0.836,0.674,0.674,0,0,0-.68-0.56q-3.205,0-6.412,0a0.77,0.77,0,0,0,.012,1.537h3.186Zm0.02,3.076q-1.6,0-3.207,0a0.77,0.77,0,0,0-.011,1.538h6.392a0.77,0.77,0,0,0-.009-1.538Q961.068,224.226,959.485,224.227Zm-0.037,6.152q1.6,0,3.207,0a0.77,0.77,0,0,0,0-1.537q-3.2,0-6.393,0a0.792,0.792,0,0,0-.222.024,0.765,0.765,0,0,0-.494.827,0.7,0.7,0,0,0,.676.684C957.3,230.381,958.373,230.379,959.448,230.379Zm-6.5-11.534c-0.225,0-.45-0.006-0.674,0a0.709,0.709,0,0,0-.647.767q-0.009.768,0,1.537a0.711,0.711,0,0,0,.647.768c0.435,0.008.871,0.007,1.307,0a0.709,0.709,0,0,0,.657-0.779q0.009-.756,0-1.513a0.713,0.713,0,0,0-.657-0.78C953.365,218.84,953.154,218.845,952.943,218.845Zm1.292,6.164c0-.256,0-0.513,0-0.769a0.714,0.714,0,0,0-.657-0.78c-0.436-.007-0.872-0.008-1.307,0a0.706,0.706,0,0,0-.648.766q-0.009.768,0,1.537a0.71,0.71,0,0,0,.646.768c0.436,0.009.871,0.008,1.307,0a0.712,0.712,0,0,0,.659-0.778C954.238,225.505,954.235,225.257,954.235,225.009Zm-1.3,3.063c-0.218,0-.436,0-0.654,0a0.709,0.709,0,0,0-.663.772c-0.006.5,0,1.009,0,1.513a0.713,0.713,0,0,0,.671.788q0.633,0.009,1.266,0a0.708,0.708,0,0,0,.674-0.784q0.009-.757,0-1.514a0.712,0.712,0,0,0-.661-0.775C953.361,228.068,953.15,228.072,952.939,228.072Z" transform="translate(-949 -215)"/>
</svg>
