<svg xmlns="http://www.w3.org/2000/svg" width="13.969" height="18.625" viewBox="0 0 13.969 18.625">
  <metadata><?xpacket begin="﻿" id="W5M0MpCehiHzreSzNTczkc9d"?>
<x:xmpmeta xmlns:x="adobe:ns:meta/" x:xmptk="Adobe XMP Core 5.6-c142 79.160924, 2017/07/13-01:06:39        ">
   <rdf:RDF xmlns:rdf="http://www.w3.org/1999/02/22-rdf-syntax-ns#">
      <rdf:Description rdf:about=""/>
   </rdf:RDF>
</x:xmpmeta>
                                                                                                    
                                                                                                    
                                                                                                    
                                                                                                    
                                                                                                    
                                                                                                    
                                                                                                    
                                                                                                    
                                                                                                    
                                                                                                    
                                                                                                    
                                                                                                    
                                                                                                    
                                                                                                    
                                                                                                    
                                                                                                    
                                                                                                    
                                                                                                    
                                                                                                    
                                                                                                    
                           
<?xpacket end="w"?></metadata>
<defs>
    <style>
      .cls-1 {
        fill: #626a76;
        fill-rule: evenodd;
      }
    </style>
  </defs>
  <path class="cls-1" d="M462.094,396h-0.218c-0.065-.061-0.131-0.121-0.195-0.184a34.234,34.234,0,0,1-3.661-4.269,19.37,19.37,0,0,1-2.376-4.187,7.24,7.24,0,0,1-.448-4.582,6.856,6.856,0,0,1,5.107-5.18c0.393-.109.806-0.146,1.21-0.216h0.945l0.32,0.043a6.888,6.888,0,0,1,5.123,3.253,6.669,6.669,0,0,1,1,4.55,10.188,10.188,0,0,1-1,3.112,23.219,23.219,0,0,1-2.734,4.251A32.836,32.836,0,0,1,462.094,396Zm3.09-11.636a3.2,3.2,0,1,0-3.167,3.2A3.2,3.2,0,0,0,465.184,384.364Z" transform="translate(-455 -377.375)"/>
</svg>
