<svg xmlns="http://www.w3.org/2000/svg" width="22.22" height="12.188" viewBox="0 0 22.22 12.188">
  <metadata><?xpacket begin="﻿" id="W5M0MpCehiHzreSzNTczkc9d"?>
<x:xmpmeta xmlns:x="adobe:ns:meta/" x:xmptk="Adobe XMP Core 5.6-c142 79.160924, 2017/07/13-01:06:39        ">
   <rdf:RDF xmlns:rdf="http://www.w3.org/1999/02/22-rdf-syntax-ns#">
      <rdf:Description rdf:about=""/>
   </rdf:RDF>
</x:xmpmeta>
                                                                                                    
                                                                                                    
                                                                                                    
                                                                                                    
                                                                                                    
                                                                                                    
                                                                                                    
                                                                                                    
                                                                                                    
                                                                                                    
                                                                                                    
                                                                                                    
                                                                                                    
                                                                                                    
                                                                                                    
                                                                                                    
                                                                                                    
                                                                                                    
                                                                                                    
                                                                                                    
                           
<?xpacket end="w"?></metadata>
<defs>
    <style>
      .cls-1 {
        fill: #97a2ad;
        fill-rule: evenodd;
      }
    </style>
  </defs>
  <path class="cls-1" d="M1207.94,308.745a3.14,3.14,0,1,0-1.74,0,6.187,6.187,0,0,0-5.36,6.1h12.46A6.187,6.187,0,0,0,1207.94,308.745Zm-7.45,3.421a5.616,5.616,0,0,1,1.55-2.382c0.11-.118.23-0.23,0.35-0.337a4.291,4.291,0,0,0-1.48-.489,2.165,2.165,0,1,0-1.21,0,4.273,4.273,0,0,0-3.7,4.215h4.08A5.486,5.486,0,0,1,1200.49,312.166Zm13.23,0.026a5.536,5.536,0,0,0-1.55-2.382c-0.11-.118-0.22-0.23-0.34-0.337a4.312,4.312,0,0,1,1.48-.489,2.17,2.17,0,1,1,1.2,0,4.273,4.273,0,0,1,3.71,4.215h-4.08A6.341,6.341,0,0,0,1213.72,312.192Z" transform="translate(-1196 -302.656)"/>
</svg>
