<svg xmlns="http://www.w3.org/2000/svg" width="13" height="21" viewBox="0 0 13 21">
  <metadata><?xpacket begin="﻿" id="W5M0MpCehiHzreSzNTczkc9d"?>
<x:xmpmeta xmlns:x="adobe:ns:meta/" x:xmptk="Adobe XMP Core 5.6-c142 79.160924, 2017/07/13-01:06:39        ">
   <rdf:RDF xmlns:rdf="http://www.w3.org/1999/02/22-rdf-syntax-ns#">
      <rdf:Description rdf:about=""/>
   </rdf:RDF>
</x:xmpmeta>
                                                                                                    
                                                                                                    
                                                                                                    
                                                                                                    
                                                                                                    
                                                                                                    
                                                                                                    
                                                                                                    
                                                                                                    
                                                                                                    
                                                                                                    
                                                                                                    
                                                                                                    
                                                                                                    
                                                                                                    
                                                                                                    
                                                                                                    
                                                                                                    
                                                                                                    
                                                                                                    
                           
<?xpacket end="w"?></metadata>
<defs>
    <style>
      .cls-1 {
        fill: #32363c;
        fill-rule: evenodd;
      }
    </style>
  </defs>
  <path class="cls-1" d="M999.552,33a2.194,2.194,0,0,1,.908.419,1.513,1.513,0,0,1,.52,1.178c0.01,0.553.01,1.107,0.01,1.66,0,5.356-.01,10.712,0,16.068a1.51,1.51,0,0,1-.95,1.5,2.071,2.071,0,0,1-.78.159q-4.772.016-9.542,0a1.6,1.6,0,0,1-1.724-1.642q0-7.481,0-14.961c0-.84.026-1.681-0.007-2.521A1.662,1.662,0,0,1,989.426,33h10.126Zm0.174,2.6H989.262v13.53h10.464V35.595Zm-5.214-1.664h-2.239a0.311,0.311,0,0,0-.381.36,0.317,0.317,0,0,0,.371.375h4.455a0.317,0.317,0,0,0,.37-0.377,0.3,0.3,0,0,0-.36-0.359h-2.216Zm-0.027,16.6a0.973,0.973,0,1,0,1.071.969A1.023,1.023,0,0,0,994.485,50.535Z" transform="translate(-988 -33)"/>
</svg>
