<svg xmlns="http://www.w3.org/2000/svg" width="16.38" height="15.719" viewBox="0 0 16.38 15.719">
  <metadata><?xpacket begin="﻿" id="W5M0MpCehiHzreSzNTczkc9d"?>
<x:xmpmeta xmlns:x="adobe:ns:meta/" x:xmptk="Adobe XMP Core 5.6-c142 79.160924, 2017/07/13-01:06:39        ">
   <rdf:RDF xmlns:rdf="http://www.w3.org/1999/02/22-rdf-syntax-ns#">
      <rdf:Description rdf:about=""/>
   </rdf:RDF>
</x:xmpmeta>
                                                                                                    
                                                                                                    
                                                                                                    
                                                                                                    
                                                                                                    
                                                                                                    
                                                                                                    
                                                                                                    
                                                                                                    
                                                                                                    
                                                                                                    
                                                                                                    
                                                                                                    
                                                                                                    
                                                                                                    
                                                                                                    
                                                                                                    
                                                                                                    
                                                                                                    
                                                                                                    
                           
<?xpacket end="w"?></metadata>
<defs>
    <style>
      .cls-1 {
        fill: #97a2ad;
        fill-rule: evenodd;
      }
    </style>
  </defs>
  <path class="cls-1" d="M1354.05,316c0.19-.716.36-1.4,0.53-2.085l0.93-3.633a0.209,0.209,0,0,0-.07-0.245c-1.44-1.214-2.87-2.432-4.31-3.649-0.03-.03-0.07-0.062-0.13-0.119,0.25-.018.46-0.036,0.68-0.05l3.62-.235c0.51-.033,1.02-0.07,1.53-0.1a0.175,0.175,0,0,0,.16-0.163c0.52-1.29,1.03-2.579,1.54-3.869l0.57-1.423c0.02-.046.04-0.092,0.07-0.164,0.04,0.087.07,0.148,0.1,0.21,0.69,1.744,1.39,3.487,2.08,5.233a0.239,0.239,0,0,0,.25.18c1.24,0.075,2.48.16,3.72,0.242l1.67,0.107,0.37,0.029c-0.19.166-.36,0.307-0.52,0.447q-1.95,1.647-3.9,3.293a0.25,0.25,0,0,0-.09.309q0.7,2.757,1.41,5.519c0.01,0.04.01,0.082,0.03,0.153-0.07-.04-0.12-0.069-0.17-0.1q-2.4-1.515-4.8-3.033a0.225,0.225,0,0,0-.29,0c-1.59,1.011-3.19,2.016-4.78,3.023C1354.19,315.915,1354.14,315.948,1354.05,316Z" transform="translate(-1351 -300.281)"/>
</svg>
